<?xml version="1.0" standalone="no"?><!DOCTYPE svg PUBLIC "-//W3C//DTD SVG 1.1//EN" "http://www.w3.org/Graphics/SVG/1.1/DTD/svg11.dtd"><svg t="1598262520043" class="icon" viewBox="0 0 1024 1024" version="1.1" xmlns="http://www.w3.org/2000/svg" p-id="9839" xmlns:xlink="http://www.w3.org/1999/xlink" width="200" height="200"><defs><style type="text/css"></style></defs><path d="M236.10511 787.545l75.156-328.942h-2.593c-2.588 0-6.48 1.314-9.067 2.632-1.299 6.58-5.185 24.997-7.777 32.895-3.887 17.104-3.887 19.736-5.18 28.948l-1.3 1.313H252.95011l-1.294-1.313 7.773-31.581c6.48-28.947 7.773-39.472 10.365-53.948l1.298-1.314c14.252-2.632 18.14-2.632 34.988-5.264l1.294 1.318-2.592 9.206c2.592-1.314 5.185-3.946 7.777-5.26 1.294-1.318 2.588-1.318 5.18-2.632l38.874-167.1c7.778-36.847 44.06-65.794 79.047-65.794H199.82011c-36.28 0-71.268 28.947-79.042 65.792L1.56011 787.545c-7.773 36.84 14.256 65.787 49.243 65.787h234.542c-36.28 0-58.31-30.261-49.239-65.787z m-23.328-273.679c-11.659 6.578-28.504 10.525-46.647 10.525-14.256 0-38.873-2.632-46.65-17.103-3.887-5.266-5.18-10.53-5.18-17.11l2.587-23.681 1.298-6.58 19.437-85.523 1.293-5.265s6.48 1.318 42.765 0v1.318c-3.886 10.526-22.029 85.524-22.029 85.524l-3.887 22.37v3.945c1.295 10.526 7.774 17.104 19.438 17.104 7.772 0 12.958-2.632 19.437-6.578 9.071-7.893 11.66-19.737 15.55-36.84 0 0 18.138-82.896 18.138-88.157 2.594 0 10.37 1.314 36.287 0v1.314c-3.89 10.525-22.03 89.474-22.03 89.474l-2.593 7.894c-2.592 17.103-7.772 35.525-27.214 47.369z" fill="#D43634" p-id="9840"></path><path d="M517.30011 787.545l19.435-86.842h-23.327c-3.887 0-6.48 0-9.072-1.314-2.588-1.318-5.18-3.946-5.18-6.578s1.294-6.58 2.592-11.844l40.167-134.207h28.51l-3.887 14.471 3.886-3.946 7.778-32.893H560.06011v-1.314c1.294-5.266 2.592-11.844 3.886-17.11l1.3-7.892c2.587-11.843 5.18-26.315 5.18-31.58 0-2.631 1.297-9.21-6.48-9.21-2.592 0-6.478 1.317-10.365 2.631-1.299 6.58-5.185 25.002-7.777 32.895-3.888 17.108-3.888 19.736-5.182 28.947l-1.298 1.319h-32.395l-1.294-1.319 7.774-31.58c6.48-28.943 7.777-39.472 9.07-53.944l1.3-1.318c14.251-2.628 18.137-2.628 34.983-5.26l1.298 1.314-2.592 9.21c2.592-1.313 5.184-3.946 7.777-5.264 7.773-3.946 15.546-5.26 20.73-5.26 3.888 0 7.774 0 11.664 2.632l37.577-167.105c7.776-36.84 44.058-65.788 80.34-65.788h-281.19c-36.285 0-71.273 28.947-79.046 65.788L317.74011 432.29c6.48-2.633 11.664-2.633 15.55-2.633 6.48 0 14.257 2.633 18.144 10.526 2.592 7.893 1.294 17.103-2.593 34.211l-2.592 9.207c-3.887 19.736-5.18 23.688-6.479 36.844l-3.886 3.948h-32.396v-1.314c1.295-5.266 2.593-11.844 3.887-17.11l1.294-7.892c2.593-11.843 5.185-26.315 5.185-31.58 0-2.631 1.294-7.893-3.886-9.21l-75.16 328.94c-7.774 36.845 14.256 65.792 49.243 65.792H566.54011c-34.987 1.314-57.017-28.947-49.24-64.473z m10.363-230.26l-6.478 21.054h-45.353l-5.185 3.946c-2.592 2.634-2.592 1.315-5.185 2.634-2.588 1.314-7.773 3.946-15.55 3.946H435.66011l6.48-19.736h3.886c3.886 0 6.48 0 7.778-1.318 1.294-1.315 2.592-2.63 5.18-6.58l7.777-15.79h33.69l-5.18 11.844h32.393z m-120.512-109.21l-6.479 26.318c-1.294 5.261-2.592 11.84-3.886 17.104-2.592 11.84-3.887 17.105-5.186 19.737-1.294 2.632-1.294 5.264-2.592 11.844h-37.575c1.294-6.58 2.592-9.212 3.886-11.844 1.294-2.632 1.294-5.265 3.887-11.844 2.592-9.211 3.886-15.79 5.185-22.368 1.294-5.26 3.887-21.05 5.18-26.315-1.293-3.946 1.3-7.893 6.48-11.84 7.777-5.264 19.437-6.578 27.214-2.632 5.184 2.633 6.48 7.893 3.886 11.84z m6.48 30.265c2.592-11.843 7.776-25 16.844-34.212 14.256-13.157 31.1-13.157 38.878-13.157 11.66 0 24.617 2.632 31.097 11.843 3.886 5.26 7.777 15.79 3.886 35.526-1.294 6.579-5.18 21.05-14.252 30.262-11.664 11.842-25.916 15.79-41.467 15.79-5.184 0-14.252-1.314-20.73-3.948-19.438-7.896-16.849-28.947-14.257-42.104z m69.975 222.363h-37.58c-2.593 0-5.18 0-9.073-1.314-2.588-1.318-5.18-2.632-6.478-3.946-1.294-2.632-3.886-3.95-2.588-9.212l10.366-36.844H420.11011l6.48-21.05h18.142l5.18-17.104h-18.138l6.48-19.736h81.634l-6.479 19.736h-32.396l-5.18 17.105h33.69l-5.186 21.05h-33.689l-7.773 27.633c-1.298 2.632 7.773 3.946 11.66 3.946l16.844-2.632-7.772 22.368z" fill="#034582" p-id="9841"></path><path d="M563.94511 567.81l-6.478 22.369s2.592-1.314 5.184-3.946l3.887-18.422h-2.593z m-111.44-63.155c3.89 0 6.478-2.633 9.07-6.579 3.887-5.264 6.48-18.422 7.778-21.054 3.887-15.786 2.588-24.997-5.185-24.997-10.365 0-14.257 13.158-18.143 27.63-1.294 5.264-2.592 10.524-2.592 14.475 2.592 10.525 9.072 10.525 9.072 10.525z m81.638 165.787c-1.298 3.947-1.298 6.579-1.298 6.579 1.298 1.314 2.592 2.632 3.89 2.632h3.886l11.66-51.315h-6.478l-11.66 42.104z m20.73-71.052l-2.592 9.21h6.48l2.592-9.21h-6.48z" fill="#034582" p-id="9842"></path><path d="M773.87011 504.654c3.886 0 10.366-2.632 12.958-6.578 1.294-1.318 2.592-5.264 3.886-7.898 1.294-3.946 2.592-9.206 2.592-13.156 1.294-2.63 1.294-5.261 1.294-7.893 1.3-10.526-2.592-17.104-9.07-17.104-10.366 0-14.252 13.157-18.139 27.629-1.298 5.264-2.593 10.524-2.593 14.476 2.593 10.524 9.072 10.524 9.072 10.524zM598.93311 608.6l2.592-9.21H560.06011l-2.592 9.21h34.987c5.185 0 6.48 1.314 6.48 0z" fill="#107C84" p-id="9843"></path><path d="M972.13011 202.028H716.85311c-36.28 0-71.27 28.947-80.34 65.788l-37.58 167.1c2.592 1.319 5.185 3.951 6.48 7.897 2.591 7.894 1.293 17.104-2.593 34.209l-2.593 9.21c-3.887 19.736-5.18 23.688-6.479 36.845l-1.294 1.314h-14.252l-7.778 32.894c2.593-2.632 7.778-5.265 10.366-6.58 6.48-2.632 20.735-5.264 20.735-5.264h45.354l-15.55 52.635c-2.594 9.206-5.182 14.471-7.774 17.104-1.298 2.632-3.886 5.264-7.778 7.892-3.886 2.632-7.773 3.95-10.365 3.95H553.58011l-11.664 51.312 15.551-1.314-6.48 23.682H538.03011l-20.73 86.843c-7.778 36.84 14.252 65.787 49.24 65.787h255.276c36.282 0 71.27-28.947 80.34-65.787l119.215-519.729c7.773-36.84-14.252-65.788-49.24-65.788zM789.42011 432.289c5.18 2.628 9.068 5.26 11.66 9.206v-3.946l1.298-1.314c15.546-2.632 19.437-2.632 36.281-5.264v1.318c-2.592 11.838-6.478 24.996-9.07 36.84-6.48 26.315-7.774 39.472-10.366 52.63l-1.299 1.318h-33.688l-1.294-1.318c0-1.315 1.294-3.947 1.294-5.261-5.186 3.946-10.366 7.893-16.845 7.893-6.48 0-11.664-1.314-18.143-3.947-19.437-7.896-16.845-30.266-14.253-42.104 2.59-11.844 7.774-25.001 16.846-34.213 14.252-11.838 29.802-14.471 37.58-11.838z m-176.235 92.102l24.622-103.946 10.366-47.37s1.298-3.946 1.298-5.26c5.18 0 15.55 1.314 44.06 0h10.364c22.03 0 40.168 0 50.538 13.157 3.886 5.261 5.18 11.84 5.18 18.422 0 5.261-1.294 10.526-1.294 14.472-3.886 17.105-12.958 31.58-24.622 40.791-18.142 14.472-42.76 14.472-63.495 14.472h-2.593l-2.588 2.632c0 1.314-5.185 21.05-5.185 21.05s-5.185 27.633-6.479 32.894c-6.478-1.314-16.844-1.314-40.172-1.314z m9.072 119.736c-1.294 3.946-2.588 6.578-5.18 9.21-2.594 2.628-6.48 5.262-15.552 5.262h-15.55v14.474c0 3.947 1.294 3.947 1.294 3.947s1.3 1.314 2.593 1.314h5.184l15.55-1.314-7.776 23.682h-16.846c-11.663 0-20.73 0-24.62-2.632-2.593-1.314-3.887-3.946-2.593-7.892l1.298-56.576h27.21v11.839h6.48c2.591 0 3.89 0 5.184-1.314 1.294-1.318 1.294-1.318 1.294-2.633l2.593-9.21h22.03l-2.593 11.843z m95.89 56.575h-29.803l2.593-6.578h-59.609l6.48-19.736h6.477l31.101-106.578 6.48-21.05h29.802l-2.592 10.525s7.777-5.265 15.55-7.894c6.48-1.318 37.58-2.632 47.946-2.632h32.394v11.84c0 2.632 1.3 2.632 5.186 2.632h5.184l-5.184 21.054h-16.846c-15.55 1.315-20.734-5.264-20.734-13.157v-11.843l-2.593 10.525h-10.366l-31.096 105.263h7.774l-6.48 21.051h-9.072l-2.592 6.578z m133.47-93.42h-32.394l-5.185 17.108h32.395l-5.18 17.104h-34.988l-6.479 7.893h14.252l3.886 22.368c0 2.633 0 3.952 1.3 5.265 1.293 1.314 5.18 1.314 7.772 1.314h3.887l-6.479 22.368h-18.14c-3.886 0-5.184-2.632-7.776-3.946-2.588-1.314-5.182-3.946-5.182-7.892l-3.886-22.369-15.55 22.37c-5.185 6.577-11.664 11.837-23.327 11.837h-22.026l6.478-19.735h9.068c2.592 0 5.185-1.314 6.48-1.314 1.298-1.319 2.592-1.319 5.184-3.946l23.323-32.898h-31.096l5.18-18.419h34.988l5.184-17.108H758.32011l6.48-19.736h97.184l-10.366 19.736z m20.732-61.841l-1.294 1.318-12.958 22.37c-3.887 7.892-11.664 13.156-23.324 13.156h-19.437l6.48-19.736h3.886c2.593 0 3.887 0 5.18-1.318 1.3 0 1.3-1.314 2.593-2.632l6.48-11.84c10.368-15.79 12.956-22.368 23.327-39.471-1.299-19.737-2.593-26.316-3.89-38.16-1.295-7.893-2.589-15.79-2.589-23.683-1.298-15.79-1.298-13.156-3.892-23.686v-1.314l1.3-1.314c15.55-1.318 15.55-2.632 32.395-5.265l1.294 1.314 2.592 43.423v2.632c9.07-19.74 9.07-14.475 19.436-39.476v-1.314l1.3-1.314c14.251-1.318 16.843-2.632 33.69-5.265l1.293 1.314c-1.294 0-64.79 111.843-73.862 130.261z" fill="#107C84" p-id="9844"></path><path d="M608.00411 579.653l3.887-11.842h-44.06l-3.886 18.422c6.48-3.948 12.96-6.58 19.437-6.58h24.622z m90.706-139.471c9.072-3.947 15.55-13.158 16.844-23.682 2.593-11.844-1.294-19.737-9.067-23.688l-22.029-1.314h-3.886v3.946l-10.37 46.051v2.633h5.184c7.774 0 16.846 0 23.324-3.946z m-24.618 232.892h24.618l6.48-23.687h-24.618l-6.48 23.687zM705.19011 567.81l-7.773 26.314s9.07-3.946 14.252-5.26c5.185-1.319 12.958-1.319 12.958-1.319l5.185-19.735H705.19011z m-20.73 67.105s9.071-5.265 14.251-6.578c5.185-1.315 12.958-2.634 12.958-2.634l6.48-19.736H693.53011l-9.072 28.948z" fill="#107C84" p-id="9845"></path></svg>